# Blender 3.4.1
# www.blender.org
mtllib Box Outer.mtl
o Cube.001
v -1.000000 -1.000000 1.000000
v -1.000000 1.000000 1.000000
v -1.000000 -1.000000 -1.000000
v -1.000000 1.000000 -1.000000
v 1.000000 -1.000000 1.000000
v 1.000000 1.000000 1.000000
v 1.000000 -1.000000 -1.000000
v 1.000000 1.000000 -1.000000
v -1.000000 -1.000000 -1.000000
v -1.000000 -1.000000 1.000000
v -1.000000 1.000000 1.000000
v -1.000000 1.000000 -1.000000
v -0.932633 -0.932633 -1.000000
v -0.932633 0.932633 -1.000000
v 0.932633 0.932633 -1.000000
v 0.932633 -0.932633 -1.000000
v 1.000000 -0.932633 -0.932633
v 1.000000 0.932633 -0.932633
v 1.000000 0.932633 0.932633
v 1.000000 -0.932633 0.932633
v 0.932633 -0.932633 1.000000
v 0.932633 0.932633 1.000000
v -0.932633 0.932633 1.000000
v -0.932633 -0.932633 1.000000
v -1.000000 -0.932633 0.932633
v -1.000000 0.932633 0.932633
v -1.000000 0.932633 -0.932633
v -1.000000 -0.932633 -0.932633
vn -0.0000 1.0000 -0.0000
vn -0.0000 -1.0000 -0.0000
vn -0.0000 -0.0000 -1.0000
vn 1.0000 -0.0000 -0.0000
vn -0.0000 -0.0000 1.0000
vn -1.0000 -0.0000 -0.0000
vt 0.125000 0.750000
vt 0.375000 1.000000
vt 0.875000 0.750000
vt 0.625000 1.000000
vt 0.125000 0.500000
vt 0.375000 0.250000
vt 0.875000 0.500000
vt 0.625000 0.250000
vt 0.375000 0.750000
vt 0.625000 0.750000
vt 0.375000 0.500000
vt 0.625000 0.500000
vt 0.125000 0.500000
vt 0.375000 0.250000
vt 0.125000 0.750000
vt 0.375000 1.000000
vt 0.375000 0.000000
vt 0.875000 0.750000
vt 0.625000 1.000000
vt 0.625000 0.000000
vt 0.875000 0.500000
vt 0.625000 0.250000
vt 0.383421 0.258421
vt 0.616579 0.258421
vt 0.616579 0.491579
vt 0.383421 0.491579
vt 0.383421 0.508421
vt 0.616579 0.508421
vt 0.616579 0.741579
vt 0.383421 0.741579
vt 0.383421 0.758421
vt 0.616579 0.758421
vt 0.616579 0.991579
vt 0.383421 0.991579
vt 0.383421 0.008421
vt 0.616579 0.008421
vt 0.616579 0.241579
vt 0.383421 0.241579
s 0
f 2/3/1 4/7/1 12/21/1 11/18/1
f 3/5/2 7/11/2 5/9/2 1/1/2
f 8/12/1 4/7/1 2/3/1 6/10/1
f 3/5/1 1/1/1 10/15/1 9/13/1
f 4/8/1 3/6/1 9/14/1 12/22/1
f 1/2/1 2/4/1 11/19/1 10/16/1
f 3/6/3 4/8/3 14/24/3 13/23/3
f 4/8/3 8/12/3 15/25/3 14/24/3
f 8/12/3 7/11/3 16/26/3 15/25/3
f 7/11/3 3/6/3 13/23/3 16/26/3
f 7/11/4 8/12/4 18/28/4 17/27/4
f 8/12/4 6/10/4 19/29/4 18/28/4
f 6/10/4 5/9/4 20/30/4 19/29/4
f 5/9/4 7/11/4 17/27/4 20/30/4
f 5/9/5 6/10/5 22/32/5 21/31/5
f 6/10/5 2/4/5 23/33/5 22/32/5
f 2/4/5 1/2/5 24/34/5 23/33/5
f 1/2/5 5/9/5 21/31/5 24/34/5
f 10/17/6 11/20/6 26/36/6 25/35/6
f 11/20/6 12/22/6 27/37/6 26/36/6
f 12/22/6 9/14/6 28/38/6 27/37/6
f 9/14/6 10/17/6 25/35/6 28/38/6
